<svg width="24" height="24" viewBox="0 0 24 24" fill="none" xmlns="http://www.w3.org/2000/svg">
<path d="M22.4576 5.47275C21.672 5.82024 20.8389 6.04845 19.9859 6.14984C20.885 5.61211 21.5579 4.76584 21.8793 3.76872C21.0355 4.27088 20.1104 4.6228 19.1462 4.81316C18.4986 4.12021 17.6401 3.66064 16.7044 3.5059C15.7686 3.35116 14.8079 3.50992 13.9716 3.9575C13.1354 4.40508 12.4705 5.11639 12.0802 5.98087C11.6899 6.84534 11.5962 7.81454 11.8136 8.73778C10.1024 8.65201 8.42848 8.20735 6.90036 7.43266C5.37225 6.65796 4.02414 5.57056 2.94355 4.24104C2.56106 4.898 2.36006 5.64483 2.36114 6.40503C2.36114 7.89708 3.12054 9.21524 4.27508 9.98699C3.59183 9.96548 2.92362 9.78096 2.32615 9.44882V9.50233C2.32636 10.496 2.67022 11.4591 3.29943 12.2282C3.92864 12.9973 4.80449 13.5252 5.77845 13.7223C5.14419 13.8941 4.47914 13.9195 3.83364 13.7964C4.10825 14.6517 4.64347 15.3997 5.36438 15.9358C6.08528 16.4718 6.95577 16.7689 7.85395 16.7856C6.96127 17.4867 5.93916 18.005 4.84606 18.3108C3.75295 18.6166 2.61029 18.7039 1.4834 18.5678C3.45054 19.8329 5.74048 20.5045 8.0793 20.5024C15.9954 20.5024 20.3244 13.9445 20.3244 8.25723C20.3244 8.07201 20.3193 7.88473 20.3111 7.70157C21.1537 7.09258 21.8809 6.33816 22.4586 5.47378L22.4576 5.47275Z" fill="#E50DF9"/>
<path opacity="0.01" d="M0 0H24V24H0V0Z" fill="#E50DF9"/>
</svg>
