<svg width="24" height="24" viewBox="0 0 24 24" fill="none" xmlns="http://www.w3.org/2000/svg">
<path fill-rule="evenodd" clip-rule="evenodd" d="M8.57155 0.714844C6.12577 0.714844 4.14307 2.69754 4.14307 5.14333C4.14307 6.52544 4.77622 7.75967 5.76829 8.57179C4.77622 9.38392 4.14307 10.6182 4.14307 12.0003C4.14307 13.3824 4.77622 14.6166 5.76829 15.4287C4.77622 16.2409 4.14307 17.4751 4.14307 18.8572C4.14307 21.303 6.12577 23.2857 8.57155 23.2857C11.0173 23.2857 13 21.303 13 18.8572V16.4287V15.7041C13.6974 16.1622 14.5318 16.4287 15.4285 16.4287C17.8743 16.4287 19.857 14.446 19.857 12.0003C19.857 10.6181 19.2239 9.38392 18.2318 8.5718C19.2239 7.75967 19.857 6.52544 19.857 5.14333C19.857 2.69754 17.8743 0.714844 15.4285 0.714844H13H11H8.57155ZM15.4155 9.57181H15.4285C15.432 9.57181 15.4355 9.57181 15.439 9.5718C16.7754 9.57745 17.857 10.6625 17.857 12.0003C17.857 13.3415 16.7697 14.4287 15.4285 14.4287C14.0873 14.4287 13 13.3415 13 12.0003C13 10.6634 14.0803 9.57884 15.4155 9.57181ZM15.4391 7.57179C16.7754 7.5661 17.857 6.48102 17.857 5.14333C17.857 3.80211 16.7697 2.71484 15.4285 2.71484H13V7.57181H15.4108C15.4167 7.57179 15.4226 7.57178 15.4285 7.57178C15.432 7.57178 15.4356 7.57178 15.4391 7.57179ZM11 7.57178V2.71484H8.57155C7.23034 2.71484 6.14307 3.80211 6.14307 5.14333C6.14307 6.48102 7.22463 7.5661 8.56099 7.57179L8.57155 7.57178H11ZM8.56106 9.5718L8.57155 9.57181H11V14.4287H8.57155L8.56106 14.4287C7.22467 14.4231 6.14307 13.338 6.14307 12.0003C6.14307 10.6625 7.22467 9.57745 8.56106 9.5718ZM8.57155 16.4287L8.56106 16.4287C7.22467 16.4344 6.14307 17.5195 6.14307 18.8572C6.14307 20.1984 7.23034 21.2857 8.57155 21.2857C9.91276 21.2857 11 20.1984 11 18.8572V16.4287H8.57155Z" fill="#E50DF9"/>
</svg>
